<svg xmlns="http://www.w3.org/2000/svg" viewBox="0 0 512 512">
  <rect width="512" height="512" rx="80" fill="#1a1b1e"/>
  <path d="M256 64 C148 64 64 148 64 256 C64 364 148 448 256 448 C364 448 448 364 448 256 C448 148 364 64 256 64Z" fill="#2ed573"/>
  <path d="M256 128 C180 128 118 190 118 266 C118 342 180 404 256 404 C332 404 394 342 394 266 C394 190 332 128 256 128Z" fill="#1a1b1e"/>
  <path d="M256 180 C212 180 178 214 178 258 C178 302 212 336 256 336 C300 336 334 302 334 258 C334 214 300 180 256 180Z" fill="#2ed573"/>
  <path d="M256 224 C234 224 216 242 216 264 C216 286 234 304 256 304 C278 304 296 286 296 264 C296 242 278 224 256 224Z" fill="#1a1b1e"/>
</svg>
