<svg xmlns="http://www.w3.org/2000/svg" viewBox="0 0 192 192">
  <rect width="192" height="192" rx="32" fill="#1a1b1e"/>
  <path d="M96 24 C56 24 28 56 28 96 C28 136 56 168 96 168 C136 168 164 136 164 96 C164 56 136 24 96 24Z" fill="#2ed573"/>
  <path d="M96 48 C68 48 44 72 44 100 C44 128 68 152 96 152 C124 152 148 128 148 100 C148 72 124 48 96 48Z" fill="#1a1b1e"/>
  <path d="M96 68 C80 68 68 80 68 96 C68 112 80 124 96 124 C112 124 124 112 124 96 C124 80 112 68 96 68Z" fill="#2ed573"/>
  <path d="M96 84 C88 84 82 90 82 98 C82 106 88 112 96 112 C104 112 110 106 110 98 C110 90 104 84 96 84Z" fill="#1a1b1e"/>
</svg>
